# xmcd
# Copyright (C) 1995-1998 Ti Kan
#
# Track frame offsets:
#       150
#       27734
#       51016
#
# Disc length: 960 seconds
#
# Revision: 0
# Processed by: cddbd v1.5.2PL0 Copyright (c) Steve Scherf et al.
# Submitted via: CD-Import v1.0
#
DISCID=2203be03
DTITLE=Barbara Roelli - Gott Esch Krass
DYEAR=1900
DGENRE=
TTITLE0=1 Annäherung An Die Freikirche Icf
TTITLE1=2 Eine Gläubige - Ein Abgänger
TTITLE2=3 Die Kritiker
EXTD=
EXTT0=
EXTT1=
EXTT2=
PLAYORDER=
